<?xml version="1.0" encoding="iso-8859-1"?>
<!-- Generator: Adobe Illustrator 16.0.0, SVG Export Plug-In . SVG Version: 6.00 Build 0)  -->
<!DOCTYPE svg PUBLIC "-//W3C//DTD SVG 1.1//EN" "http://www.w3.org/Graphics/SVG/1.1/DTD/svg11.dtd">
<svg version="1.1" id="Capa_1" xmlns="http://www.w3.org/2000/svg" xmlns:xlink="http://www.w3.org/1999/xlink" x="0px" y="0px"
	 width="611.98px" height="611.98px" viewBox="0 0 611.98 611.98" style="enable-background:new 0 0 611.98 611.98;"
	 xml:space="preserve">
<g>
	<g>
		<g>
			<path d="M305.98,82.516c57.156,0,108.953,23.189,146.465,60.682l0.021,0.02l0.021,0.02v0.02
				c37.492,37.513,60.683,89.31,60.683,146.446c0,57.176-23.209,108.973-60.683,146.466l-0.04,0.039
				c-37.492,37.474-89.271,60.683-146.465,60.683c-57.176,0-108.973-23.209-146.465-60.683l-0.04-0.039
				c-37.473-37.493-60.682-89.271-60.682-146.466c0-57.216,23.209-109.013,60.682-146.506
				C196.968,105.725,248.765,82.516,305.98,82.516L305.98,82.516z M438.959,156.684c-33.987-34.007-81.021-55.044-132.979-55.044
				c-51.936,0-98.952,21.057-132.979,55.084c-34.006,34.026-55.064,81.042-55.064,132.979c0,51.937,21.058,98.972,55.064,132.998
				c34.027,34.007,81.062,55.063,132.999,55.063c51.938,0,98.972-21.058,132.998-55.063c34.007-34.026,55.063-81.062,55.063-132.998
				c0-51.957-21.036-98.992-55.044-132.979L438.959,156.684z"/>
			<path d="M497.788,232.288c5.279,0,9.562,4.283,9.562,9.563s-4.282,9.563-9.562,9.563H330.703
				c-29.823,0-56.917-12.192-76.56-31.835s-31.835-46.737-31.835-76.54v-36.597c0-5.279,4.283-9.563,9.563-9.563
				c5.28,0,9.563,4.283,9.563,9.563v36.597c0,24.524,10.061,46.856,26.217,63.013c16.177,16.177,38.489,26.217,63.013,26.217
				h167.125L497.788,232.288L497.788,232.288z"/>
			<path d="M114.212,251.413c-5.279,0-9.563-4.283-9.563-9.563s4.303-9.563,9.563-9.563c18.687,0,34.863-0.737,49.088-5.259
				c13.766-4.363,26.336-12.471,38.588-27.313c3.347-4.044,9.383-4.622,13.447-1.255c4.064,3.367,4.622,9.383,1.275,13.447
				c-14.881,18.009-30.381,27.95-47.533,33.369C152.362,250.557,134.552,251.413,114.212,251.413z"/>
			<path d="M359.988,417.502c4.841-2.032,10.438,0.239,12.471,5.08s-0.238,10.438-5.08,12.471
				c-9.562,4.024-19.623,7.173-30.021,9.265c-10.24,2.071-20.739,3.168-31.357,3.168c-10.599,0-21.117-1.097-31.357-3.168
				c-10.399-2.111-20.48-5.239-30.042-9.265c-4.841-2.031-7.112-7.63-5.08-12.471c2.032-4.841,7.63-7.112,12.471-5.08
				c8.387,3.546,17.252,6.295,26.376,8.147c8.786,1.772,18.029,2.71,27.632,2.71c9.582,0,18.846-0.938,27.632-2.71
				C342.736,423.797,351.602,421.048,359.988,417.502z"/>
			<path d="M524.782,383.714c2.032-4.859,7.648-7.15,12.511-5.119c4.861,2.031,7.152,7.649,5.12,12.512
				c-1.476,3.506-3.229,7.312-5.14,11.314v0.021v0.021c-1.715,3.546-3.627,7.271-5.698,11.098
				c-1.894,3.485-3.944,7.071-6.155,10.696c-2.191,3.586-4.423,7.112-6.694,10.439l0.021,0.02
				c-2.331,3.428-4.702,6.794-7.112,10.021l-0.458,0.558c-2.471,3.268-4.881,6.354-7.212,9.185c-2.61,3.168-5.319,6.296-8.089,9.344
				c-2.948,3.228-5.777,6.216-8.446,8.865l-0.618,0.558c-2.528,2.51-5.339,5.18-8.307,7.869l0.021,0.02
				c-2.829,2.57-5.957,5.261-9.345,8.05v0.02c-3.267,2.689-6.534,5.26-9.722,7.65c-3.247,2.409-6.614,4.82-10.062,7.132
				c-3.307,2.23-6.833,4.481-10.499,6.714c-3.485,2.132-7.071,4.184-10.678,6.136l-0.479,0.239
				c-3.646,1.973-7.211,3.805-10.599,5.438l-0.438,0.238c-3.825,1.833-7.491,3.506-10.878,4.921l-0.736,0.278l-4.9,2.013
				l-0.26,0.101v0.02l-5.638,2.151l-0.22,0.08l-5.697,2.012l-0.199,0.062v0.02l-5.776,1.873l-0.737,0.219l-5.358,1.574l-0.22,0.06
				v0.021l-5.877,1.594c-5.1,1.354-10.339-1.673-11.694-6.772c-1.354-5.101,1.674-10.339,6.773-11.694l5.877-1.594v0.021
				l5.101-1.515l0.239-0.079l5.777-1.873v0.021l5.278-1.873h0.021l5.638-2.151l4.643-1.893l0.598-0.279
				c3.646-1.534,6.953-3.028,10.021-4.502l0.419-0.22c3.467-1.674,6.754-3.326,9.78-4.96l0.538-0.319
				c3.309-1.793,6.595-3.687,9.782-5.617c3.167-1.933,6.454-4.024,9.762-6.275c3.088-2.092,6.215-4.304,9.304-6.613
				c3.128-2.331,6.155-4.702,8.965-7.032h0.021h0.021c2.688-2.212,5.599-4.742,8.605-7.491l0.021,0.021l0.021-0.021
				c2.431-2.211,5.021-4.661,7.67-7.312l0.498-0.538c2.868-2.868,5.52-5.617,7.85-8.188c2.569-2.829,5.079-5.736,7.511-8.666
				c2.411-2.908,4.662-5.757,6.693-8.467l0.378-0.538c2.291-3.067,4.503-6.176,6.595-9.264l0.021,0.021v-0.021
				c2.191-3.228,4.264-6.454,6.176-9.622c1.894-3.128,3.825-6.476,5.697-9.961c1.733-3.188,3.486-6.634,5.26-10.279v0.021
				C521.614,391.006,523.188,387.539,524.782,383.714z"/>
			<path d="M61.738,241.492c-10.579,1.952-20.042,7.112-27.333,14.403c-9.423,9.423-15.28,22.492-15.28,36.896
				c0,14.403,5.857,27.472,15.28,36.896c7.291,7.291,16.754,12.45,27.333,14.402V241.492L61.738,241.492z M20.878,242.389
				c12.81-12.81,30.521-20.799,50.084-20.898h0.358c5.279,0,9.563,4.283,9.563,9.563V354.33v0.26c0,5.279-4.283,9.563-9.563,9.563
				c-19.703,0-37.533-7.989-50.422-20.898C7.989,330.344,0,312.514,0,292.81C0,273.108,7.989,255.258,20.878,242.389z"/>
			<path d="M540.66,221.49h0.338c19.523,0.08,37.234,8.068,50.064,20.878l0.038,0.04c12.891,12.89,20.88,30.74,20.88,50.402
				c0,19.703-7.989,37.533-20.88,50.423c-12.889,12.889-30.738,20.896-50.44,20.896c-5.279,0-9.563-4.283-9.563-9.562v-0.26V231.053
				C531.098,225.773,535.4,221.49,540.66,221.49L540.66,221.49z M577.615,255.895l-0.04-0.04
				c-7.292-7.271-16.755-12.411-27.333-14.363V344.13c10.578-1.953,20.041-7.111,27.333-14.404
				c9.423-9.423,15.28-22.49,15.28-36.895C592.855,278.427,587.038,265.338,577.615,255.895z"/>
			<path d="M87.158,198.779c-2.032,4.841-7.63,7.112-12.471,5.08c-4.841-2.032-7.112-7.61-5.08-12.451
				c9.682-22.89,22.631-44.146,38.27-63.152c15.698-19.065,34.126-35.879,54.666-49.745c21.177-14.304,44.247-25.261,68.412-32.652
				c24.204-7.391,49.465-11.196,75.025-11.196c5.28,0,9.563,4.283,9.563,9.563s-4.283,9.563-9.563,9.563
				c-23.866,0-47.254,3.486-69.507,10.28c-22.233,6.793-43.549,16.954-63.272,30.261c-19.125,12.909-36.178,28.448-50.641,46.02
				C108.076,157.959,96.103,177.642,87.158,198.779z"/>
			<path d="M305.98,508.804c9.423,0,17.99,3.846,24.185,10.021l0.04,0.04c6.195,6.194,10.021,14.762,10.021,24.186
				c0,9.463-3.845,18.029-10.021,24.226c-6.195,6.194-14.782,10.041-24.245,10.041c-9.403,0-17.969-3.847-24.185-10.041l-0.04-0.04
				c-6.196-6.216-10.041-14.763-10.041-24.186c0-9.463,3.845-18.05,10.041-24.245C287.951,512.629,296.517,508.804,305.98,508.804
				L305.98,508.804z M316.738,532.351l-0.04-0.039c-2.729-2.689-6.516-4.384-10.698-4.384c-4.183,0-7.969,1.714-10.698,4.423
				c-2.749,2.729-4.442,6.534-4.442,10.719c0,4.203,1.673,7.987,4.383,10.697l0.04,0.04c2.689,2.709,6.494,4.384,10.698,4.384
				c4.184,0,7.969-1.715,10.698-4.443c2.729-2.729,4.423-6.514,4.423-10.697C321.121,538.866,319.447,535.081,316.738,532.351z"/>
			<path d="M542.373,191.408c2.032,4.841-0.239,10.439-5.08,12.471c-4.841,2.032-10.439-0.239-12.471-5.08
				c-8.945-21.137-20.918-40.82-35.422-58.411c-14.464-17.571-31.517-33.11-50.642-46.02C419.036,81.06,397.72,70.9,375.487,64.106
				c-22.253-6.793-45.642-10.279-69.507-10.279c-5.279,0-9.563-4.283-9.563-9.563s4.283-9.563,9.563-9.563
				c25.58,0,50.821,3.805,75.045,11.196c24.166,7.391,47.234,18.348,68.411,32.652c20.539,13.866,38.968,30.68,54.666,49.745
				C519.742,147.262,532.691,168.518,542.373,191.408z"/>
		</g>
	</g>
</g>
<g>
</g>
<g>
</g>
<g>
</g>
<g>
</g>
<g>
</g>
<g>
</g>
<g>
</g>
<g>
</g>
<g>
</g>
<g>
</g>
<g>
</g>
<g>
</g>
<g>
</g>
<g>
</g>
<g>
</g>
</svg>
