<?xml version="1.0" encoding="iso-8859-1"?><!DOCTYPE svg PUBLIC "-//W3C//DTD SVG 1.1//EN" "http://www.w3.org/Graphics/SVG/1.1/DTD/svg11.dtd"> <svg version="1.1" id="Capa_1" xmlns="http://www.w3.org/2000/svg" xmlns:xlink="http://www.w3.org/1999/xlink" x="0px" y="0px" width="516.375px" height="516.375px" viewBox="0 0 516.375 516.375" style="enable-background:new 0 0 516.375 516.375;" xml:space="preserve"> <g> <g> <path d="M401.625,57.375c-32.513,0-57.375,24.862-57.375,57.375s24.862,57.375,57.375,57.375S459,147.263,459,114.75 S434.138,57.375,401.625,57.375z M401.625,153c-21.037,0-38.25-17.212-38.25-38.25s17.213-38.25,38.25-38.25 s38.25,17.212,38.25,38.25S422.662,153,401.625,153z"/> <path d="M353.812,0C263.925,0,191.25,72.675,191.25,162.562c0,19.125,3.825,38.25,9.562,57.375L0,420.75v95.625h95.625V459H153 v-57.375h57.375l86.062-86.062c17.213,5.737,36.338,9.562,57.375,9.562c89.888,0,162.562-72.675,162.562-162.562 S443.7,0,353.812,0z M200.812,382.5h-66.938v57.375H76.5v57.375H19.125v-66.938l191.25-191.25 c15.3,28.688,38.25,51.638,66.938,66.938L200.812,382.5z M353.812,306c-78.412,0-143.438-65.025-143.438-143.438 S275.4,19.125,353.812,19.125S497.25,84.15,497.25,162.562S432.225,306,353.812,306z"/> </g> </g> <g> </g> <g> </g> <g> </g> <g> </g> <g> </g> <g> </g> <g> </g> <g> </g> <g> </g> <g> </g> <g> </g> <g> </g> <g> </g> <g> </g> <g> </g> </svg>