<?xml version="1.0" encoding="iso-8859-1"?> <!-- Generator: Adobe Illustrator 18.1.1, SVG Export Plug-In . SVG Version: 6.00 Build 0)  --> <svg version="1.1" id="Capa_1" xmlns="http://www.w3.org/2000/svg" xmlns:xlink="http://www.w3.org/1999/xlink" x="0px" y="0px" viewBox="0 0 55.107 55.107" style="enable-background:new 0 0 55.107 55.107;" xml:space="preserve"> <g> <g> <path style="fill:#010002;" d="M50,4.899H10.753c-2.816,0-5.108,2.292-5.108,5.108v6.711H5.108C2.292,16.719,0,19.01,0,21.826 V45.1c0,2.816,2.292,5.107,5.108,5.107h39.248c1.365,0,2.647-0.531,3.612-1.496c0.965-0.965,1.496-2.248,1.495-3.613v-6.711H50 c2.816,0,5.107-2.291,5.107-5.106V10.007C55.107,7.191,52.816,4.899,50,4.899z M7.645,11.575h45.462v2.882H7.645V11.575z M10.753,6.899H50c1.714,0,3.107,1.394,3.107,3.108v0.567H7.645v-0.567C7.645,8.293,9.039,6.899,10.753,6.899z M47.463,45.099 c0,0.831-0.322,1.612-0.909,2.199c-0.587,0.587-1.367,0.91-2.198,0.91H5.108C3.394,48.208,2,46.814,2,45.102V21.826 c0-1.713,1.394-3.107,3.108-3.107h39.248c1.714,0,3.107,1.394,3.107,3.107V45.099z M50,36.389h-0.537V21.826 c0-2.816-2.291-5.107-5.107-5.107H7.646v-1.262h45.462v17.825C53.107,34.994,51.714,36.389,50,36.389z"/> <path style="fill:#010002;" d="M42.242,37.229H6.645c-0.276,0-0.5,0.224-0.5,0.5s0.224,0.5,0.5,0.5h35.597 c0.276,0,0.5-0.224,0.5-0.5S42.518,37.229,42.242,37.229z"/> <path style="fill:#010002;" d="M9.668,33.308h3.603c0.865,0,1.679-0.337,2.291-0.948s0.948-1.425,0.948-2.29v-2.397 c0-1.785-1.453-3.237-3.238-3.237H9.669c-1.785,0-3.237,1.452-3.237,3.237v2.398C6.431,31.855,7.883,33.308,9.668,33.308z M9.829,28.049c-0.064,0.302-0.105,0.623-0.105,0.965c0,0.188,0.013,0.37,0.033,0.546H7.432v-1.512L9.829,28.049L9.829,28.049z M11.471,26.899c0.188,0,0.384,0.149,0.553,0.4h-1.105C11.087,27.048,11.283,26.899,11.471,26.899z M12.345,28.049 c0.076,0.287,0.125,0.61,0.125,0.965c0,0.192-0.017,0.373-0.042,0.546h-1.913c-0.024-0.174-0.042-0.354-0.042-0.546 c0-0.355,0.049-0.678,0.125-0.965H12.345z M15.509,29.561h-2.323c0.02-0.177,0.033-0.358,0.033-0.546 c0-0.342-0.042-0.664-0.105-0.965h2.396v1.511H15.509z M11.471,31.128c-0.276,0-0.569-0.316-0.766-0.818h1.532 C12.04,30.812,11.747,31.128,11.471,31.128z M7.455,30.311h2.459c0.231,0.76,0.657,1.32,1.182,1.502v0.496H9.668 C8.516,32.308,7.576,31.431,7.455,30.311z M13.271,32.308h-1.425v-0.496c0.525-0.182,0.95-0.742,1.182-1.502h2.458 c-0.054,0.507-0.267,0.978-0.631,1.343C14.432,32.076,13.869,32.308,13.271,32.308z M15.471,27.299h-2.598 c-0.246-0.543-0.604-0.937-1.027-1.083v-0.778h1.425C14.377,25.437,15.291,26.243,15.471,27.299z M9.668,25.437h1.428v0.778 c-0.423,0.146-0.781,0.54-1.027,1.083h-2.6C7.649,26.243,8.563,25.437,9.668,25.437z"/> </g> </g> <g> </g> <g> </g> <g> </g> <g> </g> <g> </g> <g> </g> <g> </g> <g> </g> <g> </g> <g> </g> <g> </g> <g> </g> <g> </g> <g> </g> <g> </g> </svg>