<?xml version="1.0" encoding="iso-8859-1"?> <!-- Generator: Adobe Illustrator 16.0.0, SVG Export Plug-In . SVG Version: 6.00 Build 0)  --> <!DOCTYPE svg PUBLIC "-//W3C//DTD SVG 1.1//EN" "http://www.w3.org/Graphics/SVG/1.1/DTD/svg11.dtd"> <svg version="1.1" id="Capa_1" xmlns="http://www.w3.org/2000/svg" xmlns:xlink="http://www.w3.org/1999/xlink" x="0px" y="0px" width="612.001px" height="612.001px" viewBox="0 0 612.001 612.001" style="enable-background:new 0 0 612.001 612.001;" xml:space="preserve"> <g> <g> <g> <path d="M305.99,562.603c-5.28,0-9.563-4.285-9.563-9.564c0-5.278,4.283-9.562,9.563-9.562h207.513 c5.279,0,9.563,4.283,9.563,9.562c0,5.28-4.283,9.564-9.563,9.564H305.99L305.99,562.603z M562.931,562.603h39.508 c5.278,0,9.562-4.285,9.562-9.564v-0.276c-0.06-54.888-17.393-105.789-46.838-147.508 c-30.322-42.933-73.534-76.164-123.958-94.054c-4.961-1.754-10.419,0.855-12.173,5.816c-1.753,4.979,0.856,10.42,5.816,12.172 c46.659,16.537,86.645,47.297,114.694,87.043c25.561,36.199,41.26,79.949,43.132,127.244h-29.764 c-5.279,0-9.563,4.283-9.563,9.562C553.348,558.298,557.651,562.603,562.931,562.603L562.931,562.603z M269.611,311.16 c4.981-1.754,10.419,0.857,12.173,5.838c1.753,4.98-0.856,10.42-5.837,12.173c-7.491,2.649-14.802,5.678-21.875,9.024 c-7.212,3.406-14.205,7.152-20.898,11.176c-4.502,2.689-10.36,1.218-13.069-3.287c-2.689-4.502-1.215-10.379,3.287-13.067 c7.332-4.402,14.882-8.467,22.552-12.094C253.654,317.296,261.563,314.009,269.611,311.16z"/> <path d="M355.418,49.398c36.757,0,70.027,14.902,94.114,38.968c24.065,24.066,38.968,57.337,38.968,94.094 s-14.901,70.047-38.968,94.114c-24.067,24.067-57.357,38.988-94.114,38.988s-70.028-14.901-94.094-38.988 c-24.066-24.066-38.968-57.357-38.968-94.114s14.902-70.028,38.968-94.094C285.37,64.3,318.661,49.398,355.418,49.398 L355.418,49.398z M435.984,101.914c-20.62-20.62-49.109-33.39-80.566-33.39c-31.458,0-59.967,12.771-80.567,33.37 c-20.62,20.62-33.39,49.109-33.39,80.567c0,31.478,12.771,59.967,33.37,80.567c20.62,20.62,49.109,33.37,80.566,33.37 c31.458,0,59.967-12.771,80.566-33.37c20.619-20.62,33.37-49.109,33.37-80.567C469.354,151.003,456.604,122.514,435.984,101.914z "/> <path d="M355.418,49.398c30.202,0,58.134,10.121,80.487,27.134l0.598,0.498c22.552,17.353,39.387,41.798,47.156,69.968 c1.395,5.08-1.574,10.32-6.634,11.734c-0.838,0.239-1.715,0.339-2.552,0.339v0.04H373.368c-19.703,0-37.653-8.069-50.645-21.058 c-12.969-12.97-21.058-30.94-21.058-50.644V67.089c0-4.343,2.889-7.989,6.854-9.164c7.213-2.709,14.803-4.841,22.673-6.295 C339.181,50.155,347.27,49.398,355.418,49.398L355.418,49.398z M424.31,91.693c-19.085-14.543-42.973-23.17-68.892-23.17 c-7.212,0-14.165,0.638-20.779,1.853c-4.682,0.856-9.283,2.032-13.807,3.486v13.547c0,14.444,5.938,27.593,15.46,37.116 c9.523,9.523,22.672,15.44,37.116,15.44h87.817c-7.649-19.066-20.32-35.582-36.339-47.894L424.31,91.693z"/> <path d="M227.416,146.102c5.678-20.022,15.918-38.131,29.485-53.073c13.866-15.281,31.298-27.334,50.942-34.864 c4.921-1.873,10.439,0.598,12.313,5.518c0.418,1.116,0.637,2.271,0.617,3.407h0.02v20.321c0,19.703-8.068,37.673-21.058,50.643 c-12.97,12.969-30.94,21.058-50.643,21.058h-12.771c-5.279,0-9.563-4.283-9.563-9.563 C226.778,148.333,226.997,147.178,227.416,146.102L227.416,146.102z M271.026,105.878c-9.025,9.921-16.336,21.476-21.396,34.087 c14.225-0.14,27.194-6.037,36.598-15.44c9.523-9.523,15.459-22.672,15.459-37.116V81.95 C290.132,88.127,279.752,96.275,271.026,105.878z"/> <path d="M323.94,383.001l24.703-24.704c3.727-3.726,9.803-3.726,13.527,0l24.703,24.704c3.726,3.726,3.726,9.802,0,13.527 l-24.703,24.703c-3.726,3.725-9.802,3.725-13.527,0l-24.703-24.703C320.215,392.802,320.215,386.726,323.94,383.001 L323.94,383.001z M355.418,378.597l-11.177,11.178l11.177,11.176l11.177-11.176L355.418,378.597z"/> <path d="M391.637,516.183c1.793,4.938-0.775,10.42-5.718,12.213c-4.94,1.793-10.419-0.777-12.212-5.719l-18.289-50.523 l-18.289,50.523c-1.793,4.94-7.271,7.512-12.213,5.719c-4.94-1.793-7.511-7.273-5.718-12.213l27.215-75.229 c0.916-2.59,2.968-4.78,5.737-5.797c4.939-1.793,10.42,0.777,12.231,5.717L391.637,516.183z"/> <path d="M386.676,256.473c4.842-2.032,10.439,0.239,12.473,5.08c2.031,4.841-0.239,10.439-5.08,12.472 c-6.036,2.53-12.372,4.522-18.946,5.857c-6.515,1.315-13.129,1.993-19.724,1.993s-13.208-0.697-19.724-1.993 c-6.555-1.314-12.91-3.307-18.946-5.857c-4.842-2.032-7.111-7.63-5.079-12.472c2.03-4.841,7.63-7.112,12.471-5.08 c4.861,2.052,10.002,3.666,15.281,4.722c5.021,0.996,10.398,1.554,15.997,1.554s10.958-0.538,15.998-1.554 C376.695,260.138,381.815,258.524,386.676,256.473z"/> <path d="M493.082,499.009c-2.031-4.842,0.239-10.439,5.081-12.472c4.841-2.032,10.438,0.238,12.471,5.08 c4.024,9.563,7.173,19.623,9.266,30.023c2.07,10.24,3.167,20.738,3.167,31.356c0,5.279-4.283,9.563-9.563,9.563 s-9.562-4.283-9.562-9.563c0-9.582-0.938-18.848-2.71-27.633C499.397,516.263,496.629,507.417,493.082,499.009z"/> <path d="M67.458,437.269c4.583-2.59,10.4-0.996,13.01,3.586c2.59,4.582,0.996,10.4-3.586,13.01 c-17.532,9.961-32.195,24.484-42.355,41.877c-8.268,14.205-13.567,30.422-15.002,47.734h227.117 c-1.434-17.313-6.733-33.529-15.001-47.734c-10.161-17.412-24.804-31.916-42.355-41.877c-4.582-2.59-6.176-8.428-3.586-13.01 c2.59-4.582,8.427-6.176,13.009-3.586c20.46,11.635,37.594,28.57,49.448,48.91c11.416,19.584,17.97,42.354,18.01,66.602v0.238 c0,5.279-4.284,9.562-9.563,9.562H9.822H9.563c-5.28,0-9.563-4.283-9.563-9.562c0-24.346,6.574-47.195,18.01-66.859 C29.864,465.839,46.997,448.904,67.458,437.269z"/> <path d="M133.083,296.437c19.703,0,37.534,7.989,50.424,20.879c12.91,12.891,20.899,30.74,20.899,50.443 c0,19.625-7.989,37.475-20.899,50.385l-0.02,0.02l-0.02,0.021l-0.02,0.02c-12.93,12.892-30.741,20.879-50.364,20.879 s-37.455-7.987-50.384-20.897l-0.02-0.021l-0.02-0.02l-0.02-0.021c-12.91-12.93-20.879-30.739-20.879-50.364 c0-19.644,7.989-37.494,20.879-50.404l0.04-0.039C95.588,304.426,113.439,296.437,133.083,296.437L133.083,296.437z M169.979,330.843c-9.423-9.424-22.493-15.281-36.896-15.281s-27.453,5.838-36.896,15.242l-0.04,0.039 c-9.423,9.442-15.261,22.492-15.261,36.916c0,14.444,5.837,27.494,15.241,36.896l0.04,0.041 c9.423,9.422,22.473,15.26,36.917,15.26s27.493-5.838,36.896-15.239l0.04-0.041c9.424-9.422,15.261-22.492,15.261-36.916 S179.422,340.287,169.979,330.843z"/> <path d="M192.611,341.72c5.28,0,9.563,4.285,9.563,9.563c0,5.279-4.303,9.563-9.563,9.563h-62.896 c-11.136,0-21.317-4.582-28.668-11.935l-0.04-0.041c-7.332-7.352-11.934-17.53-11.934-28.668c0-5.278,4.283-9.562,9.563-9.562 c5.28,0,9.563,4.283,9.563,9.562c0,5.896,2.411,11.275,6.275,15.183l0.04,0.039c3.885,3.864,9.284,6.274,15.181,6.274h62.915 L192.611,341.72L192.611,341.72z"/> <path d="M123.52,468.308c0-5.279,4.284-9.563,9.563-9.563s9.563,4.283,9.563,9.563v51.121c0,5.278-4.284,9.563-9.563,9.563 s-9.563-4.285-9.563-9.563V468.308z"/> <path d="M146.869,388.001c4.841-2.032,10.439,0.238,12.472,5.08c2.033,4.843-0.239,10.439-5.08,12.472 c-3.268,1.395-6.774,2.471-10.34,3.209l0,0c-3.606,0.735-7.232,1.114-10.838,1.114c-3.586,0-7.232-0.397-10.838-1.114 l-0.239-0.062c-3.486-0.717-6.893-1.793-10.101-3.147c-4.841-2.031-7.112-7.629-5.08-12.472c2.032-4.842,7.63-7.112,12.471-5.08 c2.012,0.837,4.164,1.533,6.355,1.992l0.418,0.08c2.151,0.438,4.502,0.676,7.013,0.676c2.511,0,4.861-0.237,7.013-0.676v0.021 l0.04-0.021C142.446,389.615,144.737,388.898,146.869,388.001z"/> <path d="M433.136,311.998c4.502-2.69,10.359-1.217,13.069,3.287c2.709,4.502,1.215,10.379-3.287,13.068 c-12.97,7.811-27.115,13.945-42.057,18.07c-14.563,4.022-29.824,6.176-45.464,6.176c-15.619,0-30.899-2.152-45.464-6.195 c-14.941-4.145-29.066-10.262-42.056-18.07c-4.502-2.688-5.997-8.565-3.288-13.069c2.69-4.502,8.567-5.996,13.069-3.287 c11.535,6.934,24.106,12.393,37.354,16.059c12.751,3.525,26.318,5.418,40.384,5.418c14.064,0,27.633-1.893,40.384-5.418 C409.029,324.408,421.601,318.949,433.136,311.998z"/> <path d="M188.088,438.046c4.144-3.248,10.161-2.529,13.408,1.612c3.247,4.146,2.53,10.16-1.614,13.408 c-2.211,1.734-4.622,3.467-7.152,5.121c-2.53,1.652-5.061,3.207-7.511,4.561c-2.391,1.316-5.08,2.65-7.949,3.927 c-2.829,1.256-5.598,2.391-8.228,3.307c-4.96,1.754-10.419-0.855-12.172-5.816s0.856-10.42,5.837-12.174 c2.451-0.877,4.762-1.793,6.813-2.688c2.052-0.916,4.244-2.013,6.535-3.269c2.191-1.215,4.284-2.469,6.196-3.725 C184.144,441.015,186.136,439.601,188.088,438.046L188.088,438.046z M103.478,451.992c4.961,1.754,7.571,7.213,5.837,12.174 c-1.753,4.98-7.212,7.57-12.173,5.816c-2.629-0.916-5.399-2.051-8.228-3.307c-2.889-1.295-5.558-2.609-7.949-3.927 c-2.311-1.272-4.841-2.809-7.471-4.541h-0.02h-0.02c-2.391-1.573-4.781-3.307-7.132-5.159c-4.164-3.207-4.901-9.205-1.654-13.349 c3.228-4.145,9.224-4.881,13.368-1.653c1.853,1.454,3.845,2.889,5.937,4.264l-0.02,0.02c1.773,1.156,3.845,2.41,6.176,3.687 c2.291,1.256,4.463,2.352,6.535,3.268C98.716,450.218,101.027,451.115,103.478,451.992z"/> </g> </g> </g> <g> </g> <g> </g> <g> </g> <g> </g> <g> </g> <g> </g> <g> </g> <g> </g> <g> </g> <g> </g> <g> </g> <g> </g> <g> </g> <g> </g> <g> </g> </svg>